<mxfile host="Electron" modified="2023-09-11T18:01:41.547Z" agent="Mozilla/5.0 (X11; Linux x86_64) AppleWebKit/537.36 (KHTML, like Gecko) draw.io/21.6.8 Chrome/114.0.5735.289 Electron/25.5.0 Safari/537.36" etag="A3n_9HrWDLrjHK-ow_BP" version="21.6.8" type="device">
  <diagram name="Page-1" id="FDtQNF4XdriDfB6wOGL8">
    <mxGraphModel dx="1434" dy="854" grid="1" gridSize="10" guides="1" tooltips="1" connect="1" arrows="1" fold="1" page="1" pageScale="1" pageWidth="1100" pageHeight="850" math="0" shadow="0">
      <root>
        <mxCell id="0" />
        <mxCell id="1" parent="0" />
        <mxCell id="YRHgvKRJXKyJPHZoo4gH-18" style="edgeStyle=orthogonalEdgeStyle;rounded=0;orthogonalLoop=1;jettySize=auto;html=1;endArrow=none;endFill=0;fillColor=#dae8fc;strokeColor=#6c8ebf;strokeWidth=2;" parent="1" source="YRHgvKRJXKyJPHZoo4gH-3" edge="1">
          <mxGeometry relative="1" as="geometry">
            <mxPoint x="520" y="410" as="targetPoint" />
          </mxGeometry>
        </mxCell>
        <mxCell id="YRHgvKRJXKyJPHZoo4gH-3" value="" style="image;points=[];aspect=fixed;html=1;align=center;shadow=0;dashed=0;image=img/lib/allied_telesis/computer_and_terminals/Personal_Computer_with_Server.svg;" parent="1" vertex="1">
          <mxGeometry x="500" y="450" width="100" height="100" as="geometry" />
        </mxCell>
        <mxCell id="YRHgvKRJXKyJPHZoo4gH-16" style="edgeStyle=orthogonalEdgeStyle;rounded=0;orthogonalLoop=1;jettySize=auto;html=1;endArrow=none;endFill=0;fillColor=#dae8fc;strokeColor=#6c8ebf;strokeWidth=2;" parent="1" source="YRHgvKRJXKyJPHZoo4gH-4" target="YRHgvKRJXKyJPHZoo4gH-6" edge="1">
          <mxGeometry relative="1" as="geometry">
            <Array as="points">
              <mxPoint x="520" y="195" />
              <mxPoint x="520" y="360" />
              <mxPoint x="640" y="360" />
              <mxPoint x="640" y="195" />
            </Array>
          </mxGeometry>
        </mxCell>
        <mxCell id="YRHgvKRJXKyJPHZoo4gH-4" value="" style="image;points=[];aspect=fixed;html=1;align=center;shadow=0;dashed=0;image=img/lib/allied_telesis/computer_and_terminals/Server_Desktop.svg;" parent="1" vertex="1">
          <mxGeometry x="390" y="140" width="86.78" height="110" as="geometry" />
        </mxCell>
        <mxCell id="YRHgvKRJXKyJPHZoo4gH-6" value="" style="image;points=[];aspect=fixed;html=1;align=center;shadow=0;dashed=0;image=img/lib/allied_telesis/computer_and_terminals/Server_Desktop.svg;" parent="1" vertex="1">
          <mxGeometry x="660" y="140" width="86.78" height="110" as="geometry" />
        </mxCell>
        <mxCell id="YRHgvKRJXKyJPHZoo4gH-19" style="edgeStyle=orthogonalEdgeStyle;rounded=0;orthogonalLoop=1;jettySize=auto;html=1;endArrow=none;endFill=0;fillColor=#dae8fc;strokeColor=#6c8ebf;strokeWidth=2;" parent="1" source="YRHgvKRJXKyJPHZoo4gH-7" edge="1">
          <mxGeometry relative="1" as="geometry">
            <mxPoint x="519.9999999999998" y="410" as="targetPoint" />
            <Array as="points">
              <mxPoint x="820" y="390" />
              <mxPoint x="520" y="390" />
            </Array>
          </mxGeometry>
        </mxCell>
        <mxCell id="YRHgvKRJXKyJPHZoo4gH-7" value="" style="image;points=[];aspect=fixed;html=1;align=center;shadow=0;dashed=0;image=img/lib/allied_telesis/computer_and_terminals/Personal_Computer_with_Server.svg;" parent="1" vertex="1">
          <mxGeometry x="770" y="450" width="100" height="100" as="geometry" />
        </mxCell>
        <mxCell id="YRHgvKRJXKyJPHZoo4gH-9" value="&lt;font style=&quot;font-size: 16px;&quot;&gt;Racine Server&lt;/font&gt;" style="text;html=1;strokeColor=none;fillColor=none;align=center;verticalAlign=middle;whiteSpace=wrap;rounded=0;" parent="1" vertex="1">
          <mxGeometry x="400" y="280" width="60" height="30" as="geometry" />
        </mxCell>
        <mxCell id="YRHgvKRJXKyJPHZoo4gH-11" value="&lt;font style=&quot;font-size: 16px;&quot;&gt;Samba Server&lt;br&gt;&lt;/font&gt;" style="text;html=1;strokeColor=none;fillColor=none;align=center;verticalAlign=middle;whiteSpace=wrap;rounded=0;" parent="1" vertex="1">
          <mxGeometry x="670" y="280" width="60" height="30" as="geometry" />
        </mxCell>
        <mxCell id="YRHgvKRJXKyJPHZoo4gH-17" style="edgeStyle=orthogonalEdgeStyle;rounded=0;orthogonalLoop=1;jettySize=auto;html=1;endArrow=none;endFill=0;fillColor=#dae8fc;strokeColor=#6c8ebf;strokeWidth=2;" parent="1" source="YRHgvKRJXKyJPHZoo4gH-12" edge="1">
          <mxGeometry relative="1" as="geometry">
            <mxPoint x="520" y="360" as="targetPoint" />
            <Array as="points">
              <mxPoint x="279" y="390" />
              <mxPoint x="520" y="390" />
            </Array>
          </mxGeometry>
        </mxCell>
        <mxCell id="YRHgvKRJXKyJPHZoo4gH-12" value="" style="image;points=[];aspect=fixed;html=1;align=center;shadow=0;dashed=0;image=img/lib/allied_telesis/computer_and_terminals/Laptop.svg;" parent="1" vertex="1">
          <mxGeometry x="230" y="450" width="98.59" height="100" as="geometry" />
        </mxCell>
        <mxCell id="YRHgvKRJXKyJPHZoo4gH-13" value="&lt;font style=&quot;font-size: 16px;&quot;&gt;Lab PC&lt;/font&gt;" style="text;html=1;strokeColor=none;fillColor=none;align=center;verticalAlign=middle;whiteSpace=wrap;rounded=0;" parent="1" vertex="1">
          <mxGeometry x="520" y="580" width="60" height="30" as="geometry" />
        </mxCell>
        <mxCell id="YRHgvKRJXKyJPHZoo4gH-14" value="&lt;font style=&quot;font-size: 16px;&quot;&gt;Lab PC&lt;/font&gt;" style="text;html=1;strokeColor=none;fillColor=none;align=center;verticalAlign=middle;whiteSpace=wrap;rounded=0;" parent="1" vertex="1">
          <mxGeometry x="790" y="580" width="60" height="30" as="geometry" />
        </mxCell>
        <mxCell id="YRHgvKRJXKyJPHZoo4gH-15" value="&lt;font style=&quot;font-size: 16px;&quot;&gt;Office PC&lt;/font&gt;" style="text;html=1;strokeColor=none;fillColor=none;align=center;verticalAlign=middle;whiteSpace=wrap;rounded=0;" parent="1" vertex="1">
          <mxGeometry x="240" y="580" width="60" height="30" as="geometry" />
        </mxCell>
        <mxCell id="YRHgvKRJXKyJPHZoo4gH-21" value="&lt;font color=&quot;#6c8ebf&quot; style=&quot;font-size: 16px;&quot;&gt;Local network&lt;/font&gt;" style="text;html=1;strokeColor=none;fillColor=none;align=center;verticalAlign=middle;whiteSpace=wrap;rounded=0;" parent="1" vertex="1">
          <mxGeometry x="600" y="400" width="100" height="40" as="geometry" />
        </mxCell>
        <mxCell id="YRHgvKRJXKyJPHZoo4gH-22" value="Internet" style="ellipse;shape=cloud;whiteSpace=wrap;html=1;" parent="1" vertex="1">
          <mxGeometry x="40" y="90" width="230" height="145" as="geometry" />
        </mxCell>
        <mxCell id="YRHgvKRJXKyJPHZoo4gH-23" value="" style="endArrow=none;html=1;rounded=0;strokeColor=#FF0000;strokeWidth=2;" parent="1" edge="1">
          <mxGeometry width="50" height="50" relative="1" as="geometry">
            <mxPoint x="320" y="280" as="sourcePoint" />
            <mxPoint x="320" y="80" as="targetPoint" />
          </mxGeometry>
        </mxCell>
        <mxCell id="YRHgvKRJXKyJPHZoo4gH-24" value="" style="endArrow=classic;startArrow=classic;html=1;rounded=0;entryX=0;entryY=0.545;entryDx=0;entryDy=0;entryPerimeter=0;strokeWidth=2;dashed=1;" parent="1" target="YRHgvKRJXKyJPHZoo4gH-4" edge="1">
          <mxGeometry width="50" height="50" relative="1" as="geometry">
            <mxPoint x="254.29" y="170" as="sourcePoint" />
            <mxPoint x="380" y="170" as="targetPoint" />
            <Array as="points">
              <mxPoint x="320" y="170" />
            </Array>
          </mxGeometry>
        </mxCell>
      </root>
    </mxGraphModel>
  </diagram>
</mxfile>
